<?xml version="1.0" encoding="UTF-8" standalone="no"?>
<svg
   xmlns:dc="http://purl.org/dc/elements/1.1/"
   xmlns:cc="http://creativecommons.org/ns#"
   xmlns:rdf="http://www.w3.org/1999/02/22-rdf-syntax-ns#"
   xmlns:svg="http://www.w3.org/2000/svg"
   xmlns="http://www.w3.org/2000/svg"
   xmlns:sodipodi="http://sodipodi.sourceforge.net/DTD/sodipodi-0.dtd"
   xmlns:inkscape="http://www.inkscape.org/namespaces/inkscape"
   version="1.1"
   x="0px"
   y="0px"
   viewBox="0 0 170.1 51"
   style="enable-background:new 0 0 170.1 51;"
   xml:space="preserve"
   sodipodi:docname="WPP_logo.svg"
   inkscape:version="1.0.1 (0767f8302a, 2020-10-17)"><metadata
   id="metadata489"><rdf:RDF><cc:Work
       rdf:about=""><dc:format>image/svg+xml</dc:format><dc:type
         rdf:resource="http://purl.org/dc/dcmitype/StillImage" /></cc:Work></rdf:RDF></metadata><defs
   id="defs487">















































































































































































































































</defs><sodipodi:namedview
   pagecolor="#ffffff"
   bordercolor="#666666"
   borderopacity="1"
   objecttolerance="10"
   gridtolerance="10"
   guidetolerance="10"
   inkscape:pageopacity="0"
   inkscape:pageshadow="2"
   inkscape:window-width="1920"
   inkscape:window-height="1052"
   id="namedview485"
   showgrid="false"
   inkscape:zoom="5.6452144"
   inkscape:cx="88.657747"
   inkscape:cy="16.813685"
   inkscape:window-x="0"
   inkscape:window-y="0"
   inkscape:window-maximized="1"
   inkscape:current-layer="Artwork" />
<path
   d="M 5.1992188 0 C 4.2992187 0 3.5996094 0.69960937 3.5996094 1.5996094 C 3.5996094 2.4996094 4.2992187 3.1992187 5.1992188 3.1992188 C 6.0992187 3.1992188 6.8007813 2.4996094 6.8007812 1.5996094 C 6.8007812 0.69960937 6.0992187 2.9605947e-16 5.1992188 0 z M 13.5 0 C 12.6 0 11.900391 0.69960937 11.900391 1.5996094 C 11.900391 2.4996094 12.6 3.1992187 13.5 3.1992188 C 14.4 3.1992188 15.099609 2.4996094 15.099609 1.5996094 C 15.099609 0.69960937 14.4 2.9605947e-16 13.5 0 z M 63.800781 0 C 62.900781 0 62.199219 0.69960937 62.199219 1.5996094 C 62.199219 2.4996094 62.900781 3.1992187 63.800781 3.1992188 C 64.700781 3.1992188 65.400391 2.4996094 65.400391 1.5996094 C 65.400391 0.69960937 64.700781 2.9605947e-16 63.800781 0 z M 72.199219 0 C 71.299219 0 70.599609 0.69960937 70.599609 1.5996094 C 70.599609 2.4996094 71.299219 3.1992187 72.199219 3.1992188 C 73.099219 3.1992188 73.800781 2.4996094 73.800781 1.5996094 C 73.800781 0.69960937 73.099219 2.9605947e-16 72.199219 0 z M 87.099609 0 C 86.199609 0 85.5 0.69960937 85.5 1.5996094 C 85.5 2.4996094 86.199609 3.1992187 87.099609 3.1992188 C 87.999609 3.1992188 88.699219 2.4996094 88.699219 1.5996094 C 88.699219 0.69960937 87.999609 2.9605947e-16 87.099609 0 z M 95.400391 0 C 94.500391 0 93.800781 0.69960937 93.800781 1.5996094 C 93.800781 2.4996094 94.500391 3.1992187 95.400391 3.1992188 C 96.300391 3.1992188 97 2.4996094 97 1.5996094 C 97 0.69960937 96.300391 2.9605947e-16 95.400391 0 z M 103.80078 0 C 102.90078 0 102.19922 0.69960937 102.19922 1.5996094 C 102.19922 2.4996094 102.90078 3.1992187 103.80078 3.1992188 C 104.70078 3.1992188 105.40039 2.4996094 105.40039 1.5996094 C 105.40039 0.69960937 104.70078 2.9605947e-16 103.80078 0 z M 139.19922 0 C 138.29922 0 137.59961 0.69960937 137.59961 1.5996094 C 137.59961 2.4996094 138.29922 3.1992187 139.19922 3.1992188 C 140.09922 3.1992188 140.80078 2.4996094 140.80078 1.5996094 C 140.80078 0.69960937 140.09922 2.9605947e-16 139.19922 0 z M 147.5 0 C 146.6 0 145.90039 0.69960937 145.90039 1.5996094 C 145.90039 2.4996094 146.6 3.1992187 147.5 3.1992188 C 148.4 3.1992188 149.09961 2.4996094 149.09961 1.5996094 C 149.09961 0.69960937 148.4 2.9605947e-16 147.5 0 z M 38.599609 0.59960938 C 37.999609 0.59960938 37.599609 1.0996094 37.599609 1.5996094 C 37.599609 2.1996094 38.099609 2.5996094 38.599609 2.5996094 C 39.199609 2.5996094 39.599609 2.0996094 39.599609 1.5996094 C 39.699609 0.99960937 39.199609 0.59960938 38.599609 0.59960938 z M 112.19922 0.59960938 C 111.59922 0.59960938 111.19922 1.0996094 111.19922 1.5996094 C 111.19922 2.1996094 111.69922 2.5996094 112.19922 2.5996094 C 112.79922 2.5996094 113.19922 2.0996094 113.19922 1.5996094 C 113.19922 0.99960937 112.69922 0.59960938 112.19922 0.59960938 z M 155.90039 0.59960938 C 155.30039 0.59960938 154.90039 1.0996094 154.90039 1.5996094 C 154.90039 2.1996094 155.40039 2.5996094 155.90039 2.5996094 C 156.50039 2.5996094 156.90039 2.0996094 156.90039 1.5996094 C 156.90039 0.99960937 156.50039 0.59960938 155.90039 0.59960938 z M 9.4003906 2.4003906 C 8.5003906 2.4003906 7.8007813 3.1 7.8007812 4 C 7.8007812 4.9 8.5003906 5.5996094 9.4003906 5.5996094 C 10.300391 5.5996094 11 4.9 11 4 C 11 3.1 10.300391 2.4003906 9.4003906 2.4003906 z M 68 2.4003906 C 67.1 2.4003906 66.400391 3.1 66.400391 4 C 66.400391 4.9 67.1 5.5996094 68 5.5996094 C 68.9 5.5996094 69.599609 4.9 69.599609 4 C 69.599609 3.1 68.9 2.4003906 68 2.4003906 z M 91.199219 2.4003906 C 90.299219 2.4003906 89.599609 3.1 89.599609 4 C 89.599609 4.9 90.299219 5.5996094 91.199219 5.5996094 C 92.099219 5.5996094 92.800781 4.9 92.800781 4 C 92.900781 3.1 92.099219 2.4003906 91.199219 2.4003906 z M 99.599609 2.4003906 C 98.699609 2.4003906 98 3.1 98 4 C 98 4.9 98.699609 5.5996094 99.599609 5.5996094 C 100.49961 5.5996094 101.19922 4.9 101.19922 4 C 101.29922 3.1 100.49961 2.4003906 99.599609 2.4003906 z M 108 2.4003906 C 107.1 2.4003906 106.40039 3.1 106.40039 4 C 106.40039 4.9 107.1 5.5996094 108 5.5996094 C 108.9 5.5996094 109.59961 4.9 109.59961 4 C 109.59961 3.1 108.9 2.4003906 108 2.4003906 z M 135 2.4003906 C 134.1 2.4003906 133.40039 3.1 133.40039 4 C 133.40039 4.9 134.1 5.5996094 135 5.5996094 C 135.9 5.5996094 136.59961 4.9 136.59961 4 C 136.59961 3.1 135.9 2.4003906 135 2.4003906 z M 143.30078 2.4003906 C 142.40078 2.4003906 141.69922 3.1 141.69922 4 C 141.69922 4.9 142.40078 5.5996094 143.30078 5.5996094 C 144.20078 5.5996094 144.90039 4.9 144.90039 4 C 145.00039 3.1 144.20078 2.4003906 143.30078 2.4003906 z M 151.69922 2.4003906 C 150.79922 2.4003906 150.09961 3.1 150.09961 4 C 150.09961 4.9 150.79922 5.5996094 151.69922 5.5996094 C 152.59922 5.5996094 153.30078 4.9 153.30078 4 C 153.30078 3.1 152.59922 2.4003906 151.69922 2.4003906 z M 160.09961 2.4003906 C 159.19961 2.4003906 158.5 3.1 158.5 4 C 158.5 4.9 159.19961 5.5996094 160.09961 5.5996094 C 160.99961 5.5996094 161.69922 4.9 161.69922 4 C 161.69922 3.1 160.99961 2.4003906 160.09961 2.4003906 z M 1 3 C 0.4 3 0 3.5 0 4 C 0 4.6 0.5 5 1 5 C 1.6 5 2 4.5 2 4 C 2.1 3.5 1.6 3 1 3 z M 34.5 3 C 33.9 3 33.5 3.5 33.5 4 C 33.5 4.6 34 5 34.5 5 C 35.1 5 35.5 4.5 35.5 4 C 35.5 3.5 35 3 34.5 3 z M 42.800781 3 C 42.200781 3 41.800781 3.5 41.800781 4 C 41.800781 4.6 42.300781 5 42.800781 5 C 43.400781 5 43.800781 4.5 43.800781 4 C 43.800781 3.5 43.400781 3 42.800781 3 z M 76.300781 3 C 75.700781 3 75.300781 3.5 75.300781 4 C 75.300781 4.6 75.800781 5 76.300781 5 C 76.900781 5 77.300781 4.5 77.300781 4 C 77.300781 3.5 76.900781 3 76.300781 3 z M 116.40039 3 C 115.80039 3 115.40039 3.5 115.40039 4 C 115.40039 4.6 115.90039 5 116.40039 5 C 117.00039 5 117.40039 4.5 117.40039 4 C 117.40039 3.5 116.90039 3 116.40039 3 z M 5.1992188 4.8007812 C 4.2992187 4.8007812 3.5996094 5.5003906 3.5996094 6.4003906 C 3.5996094 7.3003906 4.2992187 8 5.1992188 8 C 6.0992187 8 6.8007813 7.3003906 6.8007812 6.4003906 C 6.9007813 5.5003906 6.0992187 4.8007813 5.1992188 4.8007812 z M 13.5 4.8007812 C 12.6 4.8007812 11.900391 5.5003906 11.900391 6.4003906 C 11.900391 7.3003906 12.6 8 13.5 8 C 14.4 8 15.099609 7.3003906 15.099609 6.4003906 C 15.099609 5.5003906 14.4 4.8007813 13.5 4.8007812 z M 38.599609 4.8007812 C 37.699609 4.8007812 37 5.5003906 37 6.4003906 C 37 7.3003906 37.699609 8 38.599609 8 C 39.499609 8 40.199219 7.3003906 40.199219 6.4003906 C 40.299219 5.5003906 39.499609 4.8007813 38.599609 4.8007812 z M 63.800781 4.8007812 C 62.900781 4.8007812 62.199219 5.5003906 62.199219 6.4003906 C 62.199219 7.3003906 62.900781 8 63.800781 8 C 64.700781 8 65.400391 7.3003906 65.400391 6.4003906 C 65.400391 5.5003906 64.700781 4.8007813 63.800781 4.8007812 z M 72.199219 4.8007812 C 71.299219 4.8007812 70.599609 5.5003906 70.599609 6.4003906 C 70.599609 7.3003906 71.299219 8 72.199219 8 C 73.099219 8 73.800781 7.3003906 73.800781 6.4003906 C 73.800781 5.5003906 73.099219 4.8007813 72.199219 4.8007812 z M 87.099609 4.8007812 C 86.199609 4.8007812 85.5 5.5003906 85.5 6.4003906 C 85.5 7.3003906 86.199609 8 87.099609 8 C 87.999609 8 88.699219 7.3003906 88.699219 6.4003906 C 88.699219 5.5003906 87.999609 4.8007813 87.099609 4.8007812 z M 95.400391 4.8007812 C 94.500391 4.8007812 93.800781 5.5003906 93.800781 6.4003906 C 93.800781 7.3003906 94.500391 8 95.400391 8 C 96.300391 8 97 7.3003906 97 6.4003906 C 97.1 5.5003906 96.300391 4.8007813 95.400391 4.8007812 z M 103.80078 4.8007812 C 102.90078 4.8007812 102.19922 5.5003906 102.19922 6.4003906 C 102.19922 7.3003906 102.90078 8 103.80078 8 C 104.70078 8 105.40039 7.3003906 105.40039 6.4003906 C 105.40039 5.5003906 104.70078 4.8007813 103.80078 4.8007812 z M 112.19922 4.8007812 C 111.29922 4.8007812 110.59961 5.5003906 110.59961 6.4003906 C 110.59961 7.3003906 111.29922 8 112.19922 8 C 113.09922 8 113.80078 7.3003906 113.80078 6.4003906 C 113.80078 5.5003906 113.09922 4.8007813 112.19922 4.8007812 z M 139.19922 4.8007812 C 138.29922 4.8007812 137.59961 5.5003906 137.59961 6.4003906 C 137.59961 7.3003906 138.29922 8 139.19922 8 C 140.09922 8 140.80078 7.3003906 140.80078 6.4003906 C 140.80078 5.5003906 140.09922 4.8007813 139.19922 4.8007812 z M 147.5 4.8007812 C 146.6 4.8007812 145.90039 5.5003906 145.90039 6.4003906 C 145.90039 7.3003906 146.6 8 147.5 8 C 148.4 8 149.09961 7.3003906 149.09961 6.4003906 C 149.19961 5.5003906 148.4 4.8007813 147.5 4.8007812 z M 155.90039 4.8007812 C 155.00039 4.8007812 154.30078 5.5003906 154.30078 6.4003906 C 154.30078 7.3003906 155.00039 8 155.90039 8 C 156.80039 8 157.5 7.3003906 157.5 6.4003906 C 157.5 5.5003906 156.80039 4.8007813 155.90039 4.8007812 z M 164.30078 4.8007812 C 163.40078 4.8007812 162.69922 5.5003906 162.69922 6.4003906 C 162.69922 7.3003906 163.40078 8 164.30078 8 C 165.20078 8 165.90039 7.3003906 165.90039 6.4003906 C 165.90039 5.5003906 165.20078 4.8007813 164.30078 4.8007812 z M 34.5 7.1992188 C 33.6 7.1992188 32.900391 7.9007812 32.900391 8.8007812 C 32.900391 9.7007813 33.6 10.400391 34.5 10.400391 C 35.4 10.400391 36.099609 9.7007813 36.099609 8.8007812 C 36.099609 7.9007812 35.4 7.1992188 34.5 7.1992188 z M 42.800781 7.1992188 C 41.900781 7.1992188 41.199219 7.9007812 41.199219 8.8007812 C 41.199219 9.7007813 41.900781 10.400391 42.800781 10.400391 C 43.700781 10.400391 44.400391 9.7007813 44.400391 8.8007812 C 44.400391 7.9007812 43.700781 7.1992188 42.800781 7.1992188 z M 68 7.1992188 C 67.1 7.1992188 66.400391 7.9007812 66.400391 8.8007812 C 66.400391 9.7007813 67.1 10.400391 68 10.400391 C 68.9 10.400391 69.599609 9.7007813 69.599609 8.8007812 C 69.599609 7.9007812 68.9 7.1992188 68 7.1992188 z M 91.199219 7.1992188 C 90.299219 7.1992188 89.599609 7.9007812 89.599609 8.8007812 C 89.599609 9.7007813 90.299219 10.400391 91.199219 10.400391 C 92.099219 10.400391 92.800781 9.7007813 92.800781 8.8007812 C 92.800781 7.9007812 92.099219 7.1992188 91.199219 7.1992188 z M 99.599609 7.1992188 C 98.699609 7.1992188 98 7.9007812 98 8.8007812 C 98 9.7007813 98.699609 10.400391 99.599609 10.400391 C 100.49961 10.400391 101.19922 9.7007813 101.19922 8.8007812 C 101.19922 7.9007812 100.49961 7.1992188 99.599609 7.1992188 z M 108 7.1992188 C 107.1 7.1992188 106.40039 7.9007812 106.40039 8.8007812 C 106.40039 9.7007813 107.1 10.400391 108 10.400391 C 108.9 10.400391 109.59961 9.7007813 109.59961 8.8007812 C 109.59961 7.9007812 108.9 7.1992188 108 7.1992188 z M 116.40039 7.1992188 C 115.50039 7.1992188 114.80078 7.9007812 114.80078 8.8007812 C 114.80078 9.7007813 115.50039 10.400391 116.40039 10.400391 C 117.30039 10.400391 118 9.7007813 118 8.8007812 C 118 7.9007812 117.30039 7.1992188 116.40039 7.1992188 z M 135 7.1992188 C 134.1 7.1992188 133.40039 7.9007812 133.40039 8.8007812 C 133.40039 9.7007813 134.1 10.400391 135 10.400391 C 135.9 10.400391 136.59961 9.7007813 136.59961 8.8007812 C 136.59961 7.9007812 135.9 7.1992188 135 7.1992188 z M 143.30078 7.1992188 C 142.40078 7.1992188 141.69922 7.9007812 141.69922 8.8007812 C 141.69922 9.7007813 142.40078 10.400391 143.30078 10.400391 C 144.20078 10.400391 144.90039 9.7007813 144.90039 8.8007812 C 144.90039 7.9007812 144.20078 7.1992188 143.30078 7.1992188 z M 151.69922 7.1992188 C 150.79922 7.1992188 150.09961 7.9007812 150.09961 8.8007812 C 150.09961 9.7007813 150.79922 10.400391 151.69922 10.400391 C 152.59922 10.400391 153.30078 9.7007813 153.30078 8.8007812 C 153.30078 7.9007812 152.59922 7.1992188 151.69922 7.1992188 z M 160.09961 7.1992188 C 159.19961 7.1992188 158.5 7.9007812 158.5 8.8007812 C 158.5 9.7007813 159.19961 10.400391 160.09961 10.400391 C 160.99961 10.400391 161.69922 9.7007813 161.69922 8.8007812 C 161.69922 7.9007812 160.99961 7.1992188 160.09961 7.1992188 z M 9.4003906 7.3007812 C 8.5003906 7.3007812 7.8007813 8.0003906 7.8007812 8.9003906 C 7.8007812 9.7003906 8.5003906 10.5 9.4003906 10.5 C 10.300391 10.5 11 9.8003906 11 8.9003906 C 11 8.0003906 10.300391 7.3007813 9.4003906 7.3007812 z M 17.699219 7.8007812 C 17.099219 7.8007812 16.699219 8.3007812 16.699219 8.8007812 C 16.699219 9.4007812 17.199219 9.8007812 17.699219 9.8007812 C 18.299219 9.8007812 18.699219 9.3007812 18.699219 8.8007812 C 18.699219 8.3007812 18.299219 7.8007812 17.699219 7.8007812 z M 59.599609 7.8007812 C 58.999609 7.8007812 58.599609 8.3007812 58.599609 8.8007812 C 58.599609 9.4007812 59.099609 9.8007812 59.599609 9.8007812 C 60.099609 9.8007812 60.599609 9.3007812 60.599609 8.8007812 C 60.599609 8.3007812 60.099609 7.8007812 59.599609 7.8007812 z M 168.5 7.8007812 C 167.9 7.8007812 167.5 8.3007812 167.5 8.8007812 C 167.5 9.4007812 168 9.8007812 168.5 9.8007812 C 169.1 9.8007812 169.5 9.3007812 169.5 8.8007812 C 169.5 8.3007812 169 7.8007812 168.5 7.8007812 z M 5.1992188 9.5996094 C 4.2992187 9.5996094 3.5996094 10.299219 3.5996094 11.199219 C 3.5996094 12.099219 4.2992187 12.800781 5.1992188 12.800781 C 6.0992188 12.800781 6.8007813 12.099219 6.8007812 11.199219 C 6.8007812 10.299219 6.0992188 9.5996094 5.1992188 9.5996094 z M 13.5 9.5996094 C 12.6 9.5996094 11.900391 10.299219 11.900391 11.199219 C 11.900391 12.099219 12.6 12.800781 13.5 12.800781 C 14.4 12.800781 15.099609 12.099219 15.099609 11.199219 C 15.099609 10.299219 14.4 9.5996094 13.5 9.5996094 z M 38.599609 9.5996094 C 37.699609 9.5996094 37 10.299219 37 11.199219 C 37 12.099219 37.699609 12.800781 38.599609 12.800781 C 39.499609 12.800781 40.199219 12.099219 40.199219 11.199219 C 40.199219 10.299219 39.499609 9.5996094 38.599609 9.5996094 z M 63.800781 9.5996094 C 62.900781 9.5996094 62.199219 10.299219 62.199219 11.199219 C 62.199219 12.099219 62.900781 12.800781 63.800781 12.800781 C 64.700781 12.800781 65.400391 12.099219 65.400391 11.199219 C 65.400391 10.299219 64.700781 9.5996094 63.800781 9.5996094 z M 87.099609 9.5996094 C 86.199609 9.5996094 85.5 10.299219 85.5 11.199219 C 85.5 12.099219 86.199609 12.800781 87.099609 12.800781 C 87.999609 12.800781 88.699219 12.099219 88.699219 11.199219 C 88.699219 10.299219 87.999609 9.5996094 87.099609 9.5996094 z M 95.400391 9.5996094 C 94.500391 9.5996094 93.800781 10.299219 93.800781 11.199219 C 93.800781 12.099219 94.500391 12.800781 95.400391 12.800781 C 96.300391 12.800781 97 12.099219 97 11.199219 C 97 10.299219 96.300391 9.5996094 95.400391 9.5996094 z M 103.80078 9.5996094 C 102.90078 9.5996094 102.19922 10.299219 102.19922 11.199219 C 102.19922 12.099219 102.90078 12.800781 103.80078 12.800781 C 104.70078 12.800781 105.40039 12.099219 105.40039 11.199219 C 105.40039 10.299219 104.70078 9.5996094 103.80078 9.5996094 z M 112.19922 9.5996094 C 111.29922 9.5996094 110.59961 10.299219 110.59961 11.199219 C 110.59961 12.099219 111.29922 12.800781 112.19922 12.800781 C 113.09922 12.800781 113.80078 12.099219 113.80078 11.199219 C 113.80078 10.299219 113.09922 9.5996094 112.19922 9.5996094 z M 120.59961 9.5996094 C 119.69961 9.5996094 119 10.299219 119 11.199219 C 119 12.099219 119.69961 12.800781 120.59961 12.800781 C 121.49961 12.800781 122.19922 12.099219 122.19922 11.199219 C 122.19922 10.299219 121.49961 9.5996094 120.59961 9.5996094 z M 139.19922 9.5996094 C 138.29922 9.5996094 137.59961 10.299219 137.59961 11.199219 C 137.59961 12.099219 138.29922 12.800781 139.19922 12.800781 C 140.09922 12.800781 140.80078 12.099219 140.80078 11.199219 C 140.80078 10.299219 140.09922 9.5996094 139.19922 9.5996094 z M 147.5 9.5996094 C 146.6 9.5996094 145.90039 10.299219 145.90039 11.199219 C 145.90039 12.099219 146.6 12.800781 147.5 12.800781 C 148.4 12.800781 149.09961 12.099219 149.09961 11.199219 C 149.09961 10.299219 148.4 9.5996094 147.5 9.5996094 z M 155.90039 9.5996094 C 155.00039 9.5996094 154.30078 10.299219 154.30078 11.199219 C 154.30078 12.099219 155.00039 12.800781 155.90039 12.800781 C 156.80039 12.800781 157.5 12.099219 157.5 11.199219 C 157.5 10.299219 156.80039 9.5996094 155.90039 9.5996094 z M 164.30078 9.5996094 C 163.40078 9.5996094 162.69922 10.299219 162.69922 11.199219 C 162.69922 12.099219 163.40078 12.800781 164.30078 12.800781 C 165.20078 12.800781 165.90039 12.099219 165.90039 11.199219 C 165.90039 10.299219 165.20078 9.5996094 164.30078 9.5996094 z M 72.199219 9.6992188 C 71.299219 9.6992188 70.599609 10.400781 70.599609 11.300781 C 70.599609 12.200781 71.299219 12.900391 72.199219 12.900391 C 73.099219 12.900391 73.800781 12.200781 73.800781 11.300781 C 73.800781 10.400781 73.099219 9.6992188 72.199219 9.6992188 z M 9.4003906 12.099609 C 8.5003906 12.099609 7.8007813 12.799219 7.8007812 13.699219 C 7.8007812 14.599219 8.5003906 15.300781 9.4003906 15.300781 C 10.300391 15.300781 11 14.599219 11 13.699219 C 11 12.799219 10.300391 12.099609 9.4003906 12.099609 z M 17.699219 12.099609 C 16.799219 12.099609 16.099609 12.799219 16.099609 13.699219 C 16.099609 14.599219 16.799219 15.300781 17.699219 15.300781 C 18.599219 15.300781 19.300781 14.599219 19.300781 13.699219 C 19.300781 12.799219 18.599219 12.099609 17.699219 12.099609 z M 34.5 12.099609 C 33.6 12.099609 32.900391 12.799219 32.900391 13.699219 C 32.900391 14.599219 33.6 15.300781 34.5 15.300781 C 35.4 15.300781 36.099609 14.599219 36.099609 13.699219 C 36.099609 12.799219 35.4 12.099609 34.5 12.099609 z M 42.800781 12.099609 C 41.900781 12.099609 41.199219 12.799219 41.199219 13.699219 C 41.199219 14.599219 41.900781 15.300781 42.800781 15.300781 C 43.700781 15.300781 44.400391 14.599219 44.400391 13.699219 C 44.500391 12.799219 43.700781 12.099609 42.800781 12.099609 z M 59.599609 12.099609 C 58.699609 12.099609 58 12.799219 58 13.699219 C 58 14.599219 58.699609 15.300781 59.599609 15.300781 C 60.499609 15.300781 61.199219 14.599219 61.199219 13.699219 C 61.199219 12.799219 60.499609 12.099609 59.599609 12.099609 z M 68 12.099609 C 67.1 12.099609 66.400391 12.799219 66.400391 13.699219 C 66.400391 14.599219 67.1 15.300781 68 15.300781 C 68.9 15.300781 69.599609 14.599219 69.599609 13.699219 C 69.599609 12.799219 68.9 12.099609 68 12.099609 z M 91.199219 12.099609 C 90.299219 12.099609 89.599609 12.799219 89.599609 13.699219 C 89.599609 14.599219 90.299219 15.300781 91.199219 15.300781 C 92.099219 15.300781 92.800781 14.599219 92.800781 13.699219 C 92.900781 12.799219 92.099219 12.099609 91.199219 12.099609 z M 116.40039 12.099609 C 115.50039 12.099609 114.80078 12.799219 114.80078 13.699219 C 114.80078 14.599219 115.50039 15.300781 116.40039 15.300781 C 117.30039 15.300781 118 14.599219 118 13.699219 C 118 12.799219 117.30039 12.099609 116.40039 12.099609 z M 135 12.099609 C 134.1 12.099609 133.40039 12.799219 133.40039 13.699219 C 133.40039 14.599219 134.1 15.300781 135 15.300781 C 135.9 15.300781 136.59961 14.599219 136.59961 13.699219 C 136.59961 12.799219 135.9 12.099609 135 12.099609 z M 143.30078 12.099609 C 142.40078 12.099609 141.69922 12.799219 141.69922 13.699219 C 141.69922 14.599219 142.40078 15.300781 143.30078 15.300781 C 144.20078 15.300781 144.90039 14.599219 144.90039 13.699219 C 145.00039 12.799219 144.20078 12.099609 143.30078 12.099609 z M 160.09961 12.099609 C 159.19961 12.099609 158.5 12.799219 158.5 13.699219 C 158.5 14.599219 159.19961 15.300781 160.09961 15.300781 C 160.99961 15.300781 161.69922 14.599219 161.69922 13.699219 C 161.69922 12.799219 160.99961 12.099609 160.09961 12.099609 z M 168.5 12.099609 C 167.6 12.099609 166.90039 12.799219 166.90039 13.699219 C 166.80039 14.599219 167.6 15.300781 168.5 15.300781 C 169.4 15.300781 170.09961 14.599219 170.09961 13.699219 C 170.09961 12.799219 169.4 12.099609 168.5 12.099609 z M 99.599609 12.699219 C 98.999609 12.699219 98.599609 13.199219 98.599609 13.699219 C 98.599609 14.299219 99.099609 14.699219 99.599609 14.699219 C 100.19961 14.699219 100.59961 14.199219 100.59961 13.699219 C 100.59961 13.099219 100.19961 12.699219 99.599609 12.699219 z M 108 12.699219 C 107.4 12.699219 107 13.199219 107 13.699219 C 107 14.299219 107.5 14.699219 108 14.699219 C 108.6 14.699219 109 14.199219 109 13.699219 C 109 13.099219 108.6 12.699219 108 12.699219 z M 151.69922 12.699219 C 151.09922 12.699219 150.69922 13.199219 150.69922 13.699219 C 150.69922 14.299219 151.19922 14.699219 151.69922 14.699219 C 152.29922 14.699219 152.69922 14.199219 152.69922 13.699219 C 152.69922 13.099219 152.29922 12.699219 151.69922 12.699219 z M 13.5 14.5 C 12.6 14.5 11.900391 15.199609 11.900391 16.099609 C 11.900391 16.999609 12.6 17.699219 13.5 17.699219 C 14.4 17.699219 15.099609 16.999609 15.099609 16.099609 C 15.099609 15.199609 14.4 14.5 13.5 14.5 z M 38.599609 14.5 C 37.699609 14.5 37 15.199609 37 16.099609 C 37 16.999609 37.699609 17.699219 38.599609 17.699219 C 39.499609 17.699219 40.199219 16.999609 40.199219 16.099609 C 40.299219 15.199609 39.499609 14.5 38.599609 14.5 z M 63.800781 14.5 C 62.900781 14.5 62.199219 15.199609 62.199219 16.099609 C 62.199219 16.999609 62.900781 17.699219 63.800781 17.699219 C 64.700781 17.699219 65.400391 16.999609 65.400391 16.099609 C 65.400391 15.199609 64.700781 14.5 63.800781 14.5 z M 87.099609 14.5 C 86.199609 14.5 85.5 15.199609 85.5 16.099609 C 85.5 16.999609 86.199609 17.699219 87.099609 17.699219 C 87.999609 17.699219 88.699219 16.999609 88.699219 16.099609 C 88.699219 15.199609 87.999609 14.5 87.099609 14.5 z M 95.400391 14.5 C 94.500391 14.5 93.800781 15.199609 93.800781 16.099609 C 93.800781 16.999609 94.500391 17.699219 95.400391 17.699219 C 96.300391 17.699219 97 16.999609 97 16.099609 C 97.1 15.199609 96.300391 14.5 95.400391 14.5 z M 112.19922 14.5 C 111.29922 14.5 110.59961 15.199609 110.59961 16.099609 C 110.59961 16.999609 111.29922 17.699219 112.19922 17.699219 C 113.09922 17.699219 113.80078 16.999609 113.80078 16.099609 C 113.80078 15.199609 113.09922 14.5 112.19922 14.5 z M 120.59961 14.5 C 119.69961 14.5 119 15.199609 119 16.099609 C 119 16.999609 119.69961 17.699219 120.59961 17.699219 C 121.49961 17.699219 122.19922 16.999609 122.19922 16.099609 C 122.19922 15.199609 121.49961 14.5 120.59961 14.5 z M 139.19922 14.5 C 138.29922 14.5 137.59961 15.199609 137.59961 16.099609 C 137.59961 16.999609 138.29922 17.699219 139.19922 17.699219 C 140.09922 17.699219 140.80078 16.999609 140.80078 16.099609 C 140.80078 15.199609 140.09922 14.5 139.19922 14.5 z M 164.30078 14.5 C 163.40078 14.5 162.69922 15.199609 162.69922 16.099609 C 162.69922 16.999609 163.40078 17.699219 164.30078 17.699219 C 165.20078 17.699219 165.90039 16.999609 165.90039 16.099609 C 165.90039 15.199609 165.20078 14.5 164.30078 14.5 z M 21.900391 15.099609 C 21.300391 15.099609 20.900391 15.599609 20.900391 16.099609 C 20.900391 16.699609 21.400391 17.099609 21.900391 17.099609 C 22.500391 17.099609 22.900391 16.599609 22.900391 16.099609 C 22.900391 15.499609 22.400391 15.099609 21.900391 15.099609 z M 30.300781 15.099609 C 29.700781 15.099609 29.300781 15.599609 29.300781 16.099609 C 29.300781 16.699609 29.800781 17.099609 30.300781 17.099609 C 30.900781 17.099609 31.300781 16.599609 31.300781 16.099609 C 31.300781 15.499609 30.800781 15.099609 30.300781 15.099609 z M 47 15.099609 C 46.4 15.099609 46 15.599609 46 16.099609 C 46 16.699609 46.5 17.099609 47 17.099609 C 47.6 17.099609 48 16.599609 48 16.099609 C 48 15.499609 47.6 15.099609 47 15.099609 z M 55.400391 15.099609 C 54.800391 15.099609 54.400391 15.599609 54.400391 16.099609 C 54.400391 16.699609 54.900391 17.099609 55.400391 17.099609 C 56.000391 17.099609 56.400391 16.599609 56.400391 16.099609 C 56.400391 15.499609 56.000391 15.099609 55.400391 15.099609 z M 17.699219 16.900391 C 16.799219 16.900391 16.099609 17.6 16.099609 18.5 C 16.099609 19.4 16.799219 20.099609 17.699219 20.099609 C 18.599219 20.099609 19.300781 19.4 19.300781 18.5 C 19.300781 17.6 18.599219 16.900391 17.699219 16.900391 z M 34.5 16.900391 C 33.6 16.900391 32.900391 17.6 32.900391 18.5 C 32.900391 19.4 33.6 20.099609 34.5 20.099609 C 35.4 20.099609 36.099609 19.4 36.099609 18.5 C 36.099609 17.6 35.4 16.900391 34.5 16.900391 z M 42.800781 16.900391 C 41.900781 16.900391 41.199219 17.6 41.199219 18.5 C 41.199219 19.4 41.900781 20.099609 42.800781 20.099609 C 43.700781 20.099609 44.400391 19.4 44.400391 18.5 C 44.500391 17.6 43.700781 16.900391 42.800781 16.900391 z M 59.599609 16.900391 C 58.699609 16.900391 58 17.6 58 18.5 C 58 19.4 58.699609 20.099609 59.599609 20.099609 C 60.499609 20.099609 61.199219 19.4 61.199219 18.5 C 61.199219 17.6 60.499609 16.900391 59.599609 16.900391 z M 91.199219 16.900391 C 90.299219 16.900391 89.599609 17.6 89.599609 18.5 C 89.599609 19.4 90.299219 20.099609 91.199219 20.099609 C 92.099219 20.099609 92.800781 19.4 92.800781 18.5 C 92.900781 17.6 92.099219 16.900391 91.199219 16.900391 z M 116.40039 16.900391 C 115.50039 16.900391 114.80078 17.6 114.80078 18.5 C 114.80078 19.4 115.50039 20.099609 116.40039 20.099609 C 117.30039 20.099609 118 19.4 118 18.5 C 118 17.6 117.30039 16.900391 116.40039 16.900391 z M 135 16.900391 C 134.1 16.900391 133.40039 17.6 133.40039 18.5 C 133.40039 19.4 134.1 20.099609 135 20.099609 C 135.9 20.099609 136.59961 19.4 136.59961 18.5 C 136.59961 17.6 135.9 16.900391 135 16.900391 z M 143.30078 16.900391 C 142.40078 16.900391 141.69922 17.6 141.69922 18.5 C 141.69922 19.4 142.40078 20.099609 143.30078 20.099609 C 144.20078 20.099609 144.90039 19.4 144.90039 18.5 C 145.00039 17.6 144.20078 16.900391 143.30078 16.900391 z M 160.09961 16.900391 C 159.19961 16.900391 158.5 17.6 158.5 18.5 C 158.5 19.4 159.19961 20.099609 160.09961 20.099609 C 160.99961 20.099609 161.69922 19.4 161.69922 18.5 C 161.69922 17.6 160.99961 16.900391 160.09961 16.900391 z M 168.5 16.900391 C 167.6 16.900391 166.90039 17.6 166.90039 18.5 C 166.90039 19.4 167.6 20.099609 168.5 20.099609 C 169.4 20.099609 170.09961 19.4 170.09961 18.5 C 170.09961 17.6 169.4 16.900391 168.5 16.900391 z M 9.4003906 17 C 8.5003906 17 7.8007813 17.699609 7.8007812 18.599609 C 7.8007812 19.399609 8.5003906 20.199219 9.4003906 20.199219 C 10.300391 20.199219 11 19.499609 11 18.599609 C 11 17.699609 10.300391 17 9.4003906 17 z M 68 17 C 67.1 17 66.400391 17.699609 66.400391 18.599609 C 66.300391 19.399609 67.1 20.199219 68 20.199219 C 68.9 20.199219 69.599609 19.499609 69.599609 18.599609 C 69.599609 17.699609 68.9 17 68 17 z M 13.5 19.300781 C 12.6 19.300781 11.900391 20.000391 11.900391 20.900391 C 11.900391 21.800391 12.6 22.5 13.5 22.5 C 14.4 22.5 15.099609 21.800391 15.099609 20.900391 C 15.099609 20.000391 14.4 19.300781 13.5 19.300781 z M 30.300781 19.300781 C 29.400781 19.300781 28.699219 20.000391 28.699219 20.900391 C 28.699219 21.800391 29.400781 22.5 30.300781 22.5 C 31.200781 22.5 31.900391 21.800391 31.900391 20.900391 C 31.900391 20.000391 31.200781 19.300781 30.300781 19.300781 z M 38.599609 19.300781 C 37.699609 19.300781 37 20.000391 37 20.900391 C 37 21.800391 37.699609 22.5 38.599609 22.5 C 39.499609 22.5 40.199219 21.800391 40.199219 20.900391 C 40.299219 20.000391 39.499609 19.300781 38.599609 19.300781 z M 47 19.300781 C 46.1 19.300781 45.400391 20.000391 45.400391 20.900391 C 45.400391 21.800391 46.1 22.5 47 22.5 C 47.9 22.5 48.599609 21.800391 48.599609 20.900391 C 48.699609 20.000391 47.9 19.300781 47 19.300781 z M 63.800781 19.300781 C 62.900781 19.300781 62.199219 20.000391 62.199219 20.900391 C 62.199219 21.800391 62.900781 22.5 63.800781 22.5 C 64.700781 22.5 65.400391 21.800391 65.400391 20.900391 C 65.400391 20.000391 64.700781 19.300781 63.800781 19.300781 z M 87.099609 19.300781 C 86.199609 19.300781 85.5 20.000391 85.5 20.900391 C 85.5 21.800391 86.199609 22.5 87.099609 22.5 C 87.999609 22.5 88.699219 21.800391 88.699219 20.900391 C 88.699219 20.000391 87.999609 19.300781 87.099609 19.300781 z M 95.400391 19.300781 C 94.500391 19.300781 93.800781 20.000391 93.800781 20.900391 C 93.800781 21.800391 94.500391 22.5 95.400391 22.5 C 96.300391 22.5 97 21.800391 97 20.900391 C 97.1 20.000391 96.300391 19.300781 95.400391 19.300781 z M 112.19922 19.300781 C 111.29922 19.300781 110.59961 20.000391 110.59961 20.900391 C 110.59961 21.800391 111.29922 22.5 112.19922 22.5 C 113.09922 22.5 113.80078 21.800391 113.80078 20.900391 C 113.80078 20.000391 113.09922 19.300781 112.19922 19.300781 z M 120.59961 19.300781 C 119.69961 19.300781 119 20.000391 119 20.900391 C 119 21.800391 119.69961 22.5 120.59961 22.5 C 121.49961 22.5 122.19922 21.800391 122.19922 20.900391 C 122.19922 20.000391 121.49961 19.300781 120.59961 19.300781 z M 139.19922 19.300781 C 138.29922 19.300781 137.59961 20.000391 137.59961 20.900391 C 137.59961 21.800391 138.29922 22.5 139.19922 22.5 C 140.09922 22.5 140.80078 21.800391 140.80078 20.900391 C 140.80078 20.000391 140.09922 19.300781 139.19922 19.300781 z M 164.30078 19.300781 C 163.40078 19.300781 162.69922 20.000391 162.69922 20.900391 C 162.69922 21.800391 163.40078 22.5 164.30078 22.5 C 165.20078 22.5 165.90039 21.800391 165.90039 20.900391 C 165.90039 20.000391 165.20078 19.300781 164.30078 19.300781 z M 21.900391 19.900391 C 21.300391 19.900391 20.900391 20.400391 20.900391 20.900391 C 20.900391 21.500391 21.400391 21.900391 21.900391 21.900391 C 22.500391 21.900391 22.900391 21.400391 22.900391 20.900391 C 22.900391 20.400391 22.400391 19.900391 21.900391 19.900391 z M 55.400391 19.900391 C 54.800391 19.900391 54.400391 20.400391 54.400391 20.900391 C 54.400391 21.500391 54.900391 21.900391 55.400391 21.900391 C 56.000391 21.900391 56.400391 21.400391 56.400391 20.900391 C 56.400391 20.400391 56.000391 19.900391 55.400391 19.900391 z M 17.699219 21.699219 C 16.799219 21.699219 16.099609 22.400781 16.099609 23.300781 C 16.099609 24.200781 16.799219 24.900391 17.699219 24.900391 C 18.599219 24.900391 19.300781 24.200781 19.300781 23.300781 C 19.300781 22.500781 18.599219 21.699219 17.699219 21.699219 z M 34.5 21.699219 C 33.6 21.699219 32.900391 22.400781 32.900391 23.300781 C 32.900391 24.200781 33.6 24.900391 34.5 24.900391 C 35.4 24.900391 36.099609 24.200781 36.099609 23.300781 C 36.099609 22.500781 35.4 21.699219 34.5 21.699219 z M 42.800781 21.699219 C 41.900781 21.699219 41.199219 22.400781 41.199219 23.300781 C 41.199219 24.200781 41.900781 24.900391 42.800781 24.900391 C 43.700781 24.900391 44.400391 24.200781 44.400391 23.300781 C 44.500391 22.500781 43.700781 21.699219 42.800781 21.699219 z M 59.599609 21.699219 C 58.699609 21.699219 58 22.400781 58 23.300781 C 58 24.200781 58.699609 24.900391 59.599609 24.900391 C 60.499609 24.900391 61.199219 24.200781 61.199219 23.300781 C 61.199219 22.500781 60.499609 21.699219 59.599609 21.699219 z M 91.199219 21.699219 C 90.299219 21.699219 89.599609 22.400781 89.599609 23.300781 C 89.599609 24.200781 90.299219 24.900391 91.199219 24.900391 C 92.099219 24.900391 92.800781 24.200781 92.800781 23.300781 C 92.900781 22.500781 92.099219 21.699219 91.199219 21.699219 z M 116.40039 21.699219 C 115.50039 21.699219 114.80078 22.400781 114.80078 23.300781 C 114.80078 24.200781 115.50039 24.900391 116.40039 24.900391 C 117.30039 24.900391 118 24.200781 118 23.300781 C 118 22.500781 117.30039 21.699219 116.40039 21.699219 z M 135 21.699219 C 134.1 21.699219 133.40039 22.400781 133.40039 23.300781 C 133.40039 24.200781 134.1 24.900391 135 24.900391 C 135.9 24.900391 136.59961 24.200781 136.59961 23.300781 C 136.59961 22.500781 135.9 21.699219 135 21.699219 z M 143.30078 21.699219 C 142.40078 21.699219 141.69922 22.400781 141.69922 23.300781 C 141.69922 24.200781 142.40078 24.900391 143.30078 24.900391 C 144.20078 24.900391 144.90039 24.200781 144.90039 23.300781 C 145.00039 22.500781 144.20078 21.699219 143.30078 21.699219 z M 160.09961 21.699219 C 159.19961 21.699219 158.5 22.400781 158.5 23.300781 C 158.5 24.200781 159.19961 24.900391 160.09961 24.900391 C 160.99961 24.900391 161.69922 24.200781 161.69922 23.300781 C 161.69922 22.500781 160.99961 21.699219 160.09961 21.699219 z M 168.5 21.699219 C 167.6 21.699219 166.90039 22.400781 166.90039 23.300781 C 166.90039 24.200781 167.6 24.900391 168.5 24.900391 C 169.4 24.900391 170.09961 24.200781 170.09961 23.300781 C 170.09961 22.500781 169.4 21.699219 168.5 21.699219 z M 26.099609 22.300781 C 25.499609 22.300781 25.099609 22.800781 25.099609 23.300781 C 25.099609 23.900781 25.599609 24.300781 26.099609 24.300781 C 26.699609 24.300781 27.099609 23.800781 27.099609 23.300781 C 27.099609 22.800781 26.599609 22.300781 26.099609 22.300781 z M 51.199219 22.300781 C 50.599219 22.300781 50.199219 22.800781 50.199219 23.300781 C 50.199219 23.900781 50.699219 24.300781 51.199219 24.300781 C 51.799219 24.300781 52.199219 23.800781 52.199219 23.300781 C 52.199219 22.800781 51.799219 22.300781 51.199219 22.300781 z M 151.69922 22.300781 C 151.09922 22.300781 150.69922 22.800781 150.69922 23.300781 C 150.69922 23.900781 151.19922 24.300781 151.69922 24.300781 C 152.29922 24.300781 152.69922 23.800781 152.69922 23.300781 C 152.69922 22.800781 152.29922 22.300781 151.69922 22.300781 z M 99.599609 22.400391 C 98.999609 22.400391 98.599609 22.900391 98.599609 23.400391 C 98.599609 23.900391 99.099609 24.400391 99.599609 24.400391 C 100.19961 24.400391 100.59961 23.900391 100.59961 23.400391 C 100.59961 22.800391 100.09961 22.400391 99.599609 22.400391 z M 108 22.400391 C 107.4 22.400391 107 22.900391 107 23.400391 C 107 23.900391 107.4 24.400391 108 24.400391 C 108.6 24.400391 109 23.900391 109 23.400391 C 109 22.800391 108.5 22.400391 108 22.400391 z M 13.5 24.099609 C 12.6 24.099609 11.900391 24.799219 11.900391 25.699219 C 11.900391 26.599219 12.6 27.300781 13.5 27.300781 C 14.4 27.300781 15.099609 26.599219 15.099609 25.699219 C 15.099609 24.799219 14.4 24.099609 13.5 24.099609 z M 21.900391 24.099609 C 21.000391 24.099609 20.300781 24.799219 20.300781 25.699219 C 20.300781 26.599219 21.000391 27.300781 21.900391 27.300781 C 22.800391 27.300781 23.5 26.599219 23.5 25.699219 C 23.5 24.799219 22.800391 24.099609 21.900391 24.099609 z M 30.300781 24.099609 C 29.400781 24.099609 28.699219 24.799219 28.699219 25.699219 C 28.699219 26.599219 29.400781 27.300781 30.300781 27.300781 C 31.200781 27.300781 31.900391 26.599219 31.900391 25.699219 C 31.900391 24.799219 31.200781 24.099609 30.300781 24.099609 z M 47 24.099609 C 46.1 24.099609 45.400391 24.799219 45.400391 25.699219 C 45.400391 26.599219 46.1 27.300781 47 27.300781 C 47.9 27.300781 48.599609 26.599219 48.599609 25.699219 C 48.599609 24.799219 47.9 24.099609 47 24.099609 z M 55.400391 24.099609 C 54.500391 24.099609 53.800781 24.799219 53.800781 25.699219 C 53.800781 26.599219 54.500391 27.300781 55.400391 27.300781 C 56.300391 27.300781 57 26.599219 57 25.699219 C 57 24.799219 56.300391 24.099609 55.400391 24.099609 z M 63.800781 24.099609 C 62.900781 24.099609 62.199219 24.799219 62.199219 25.699219 C 62.199219 26.599219 62.900781 27.300781 63.800781 27.300781 C 64.700781 27.300781 65.400391 26.599219 65.400391 25.699219 C 65.400391 24.799219 64.700781 24.099609 63.800781 24.099609 z M 87.099609 24.099609 C 86.199609 24.099609 85.5 24.799219 85.5 25.699219 C 85.5 26.599219 86.199609 27.300781 87.099609 27.300781 C 87.999609 27.300781 88.699219 26.599219 88.699219 25.699219 C 88.699219 24.899219 87.999609 24.099609 87.099609 24.099609 z M 95.400391 24.099609 C 94.500391 24.099609 93.800781 24.799219 93.800781 25.699219 C 93.800781 26.599219 94.500391 27.300781 95.400391 27.300781 C 96.300391 27.300781 97 26.599219 97 25.699219 C 97.1 24.899219 96.300391 24.099609 95.400391 24.099609 z M 103.80078 24.099609 C 102.90078 24.099609 102.19922 24.799219 102.19922 25.699219 C 102.19922 26.599219 102.90078 27.300781 103.80078 27.300781 C 104.70078 27.300781 105.40039 26.599219 105.40039 25.699219 C 105.40039 24.899219 104.70078 24.099609 103.80078 24.099609 z M 112.19922 24.099609 C 111.29922 24.099609 110.59961 24.799219 110.59961 25.699219 C 110.59961 26.599219 111.29922 27.300781 112.19922 27.300781 C 113.09922 27.300781 113.80078 26.599219 113.80078 25.699219 C 113.80078 24.899219 113.09922 24.099609 112.19922 24.099609 z M 139.19922 24.099609 C 138.29922 24.099609 137.59961 24.799219 137.59961 25.699219 C 137.59961 26.599219 138.29922 27.300781 139.19922 27.300781 C 140.09922 27.300781 140.80078 26.599219 140.80078 25.699219 C 140.80078 24.899219 140.09922 24.099609 139.19922 24.099609 z M 147.5 24.099609 C 146.6 24.099609 145.90039 24.799219 145.90039 25.699219 C 145.90039 26.599219 146.6 27.300781 147.5 27.300781 C 148.4 27.300781 149.09961 26.599219 149.09961 25.699219 C 149.19961 24.899219 148.4 24.099609 147.5 24.099609 z M 155.90039 24.099609 C 155.00039 24.099609 154.30078 24.799219 154.30078 25.699219 C 154.30078 26.599219 155.00039 27.300781 155.90039 27.300781 C 156.80039 27.300781 157.5 26.599219 157.5 25.699219 C 157.5 24.899219 156.80039 24.099609 155.90039 24.099609 z M 164.30078 24.099609 C 163.40078 24.099609 162.69922 24.799219 162.69922 25.699219 C 162.69922 26.599219 163.40078 27.300781 164.30078 27.300781 C 165.20078 27.300781 165.90039 26.599219 165.90039 25.699219 C 165.90039 24.899219 165.20078 24.099609 164.30078 24.099609 z M 38.599609 24.199219 C 37.699609 24.199219 37 24.900781 37 25.800781 C 37 26.700781 37.699609 27.400391 38.599609 27.400391 C 39.499609 27.400391 40.199219 26.700781 40.199219 25.800781 C 40.199219 24.900781 39.499609 24.199219 38.599609 24.199219 z M 120.59961 24.800781 C 120.09961 24.800781 119.59961 25.300781 119.59961 25.800781 C 119.59961 26.300781 119.99961 26.800781 120.59961 26.800781 C 121.19961 26.800781 121.59961 26.300781 121.59961 25.800781 C 121.59961 25.200781 121.09961 24.800781 120.59961 24.800781 z M 17.699219 26.599609 C 16.799219 26.599609 16.099609 27.299219 16.099609 28.199219 C 16.099609 29.099219 16.799219 29.800781 17.699219 29.800781 C 18.599219 29.800781 19.300781 29.099219 19.300781 28.199219 C 19.300781 27.299219 18.599219 26.599609 17.699219 26.599609 z M 26.099609 26.599609 C 25.199609 26.599609 24.5 27.299219 24.5 28.199219 C 24.5 29.099219 25.199609 29.800781 26.099609 29.800781 C 26.999609 29.800781 27.699219 29.099219 27.699219 28.199219 C 27.699219 27.299219 26.999609 26.599609 26.099609 26.599609 z M 34.5 26.599609 C 33.6 26.599609 32.900391 27.299219 32.900391 28.199219 C 32.900391 29.099219 33.6 29.800781 34.5 29.800781 C 35.4 29.800781 36.099609 29.099219 36.099609 28.199219 C 36.099609 27.299219 35.4 26.599609 34.5 26.599609 z M 42.800781 26.599609 C 41.900781 26.599609 41.199219 27.299219 41.199219 28.199219 C 41.199219 29.099219 41.900781 29.800781 42.800781 29.800781 C 43.700781 29.800781 44.400391 29.099219 44.400391 28.199219 C 44.500391 27.299219 43.700781 26.599609 42.800781 26.599609 z M 51.199219 26.599609 C 50.299219 26.599609 49.599609 27.299219 49.599609 28.199219 C 49.599609 29.099219 50.299219 29.800781 51.199219 29.800781 C 52.099219 29.800781 52.800781 29.099219 52.800781 28.199219 C 52.800781 27.299219 52.099219 26.599609 51.199219 26.599609 z M 59.599609 26.599609 C 58.699609 26.599609 58 27.299219 58 28.199219 C 58 29.099219 58.699609 29.800781 59.599609 29.800781 C 60.499609 29.800781 61.199219 29.099219 61.199219 28.199219 C 61.199219 27.299219 60.499609 26.599609 59.599609 26.599609 z M 91.199219 26.599609 C 90.299219 26.599609 89.599609 27.299219 89.599609 28.199219 C 89.599609 29.099219 90.299219 29.800781 91.199219 29.800781 C 92.099219 29.800781 92.800781 29.099219 92.800781 28.199219 C 92.900781 27.299219 92.099219 26.599609 91.199219 26.599609 z M 99.599609 26.599609 C 98.699609 26.599609 98 27.299219 98 28.199219 C 98 29.099219 98.699609 29.800781 99.599609 29.800781 C 100.49961 29.800781 101.19922 29.099219 101.19922 28.199219 C 101.29922 27.299219 100.49961 26.599609 99.599609 26.599609 z M 108 26.599609 C 107.1 26.599609 106.40039 27.299219 106.40039 28.199219 C 106.40039 29.099219 107.1 29.800781 108 29.800781 C 108.9 29.800781 109.59961 29.099219 109.59961 28.199219 C 109.59961 27.299219 108.9 26.599609 108 26.599609 z M 116.40039 26.599609 C 115.50039 26.599609 114.80078 27.299219 114.80078 28.199219 C 114.70078 29.099219 115.50039 29.800781 116.40039 29.800781 C 117.30039 29.800781 118 29.099219 118 28.199219 C 118 27.299219 117.30039 26.599609 116.40039 26.599609 z M 135 26.599609 C 134.1 26.599609 133.40039 27.299219 133.40039 28.199219 C 133.40039 29.099219 134.1 29.800781 135 29.800781 C 135.9 29.800781 136.59961 29.099219 136.59961 28.199219 C 136.59961 27.299219 135.9 26.599609 135 26.599609 z M 143.30078 26.599609 C 142.40078 26.599609 141.69922 27.299219 141.69922 28.199219 C 141.69922 29.099219 142.40078 29.800781 143.30078 29.800781 C 144.20078 29.800781 144.90039 29.099219 144.90039 28.199219 C 145.00039 27.299219 144.20078 26.599609 143.30078 26.599609 z M 151.69922 26.599609 C 150.79922 26.599609 150.09961 27.299219 150.09961 28.199219 C 150.09961 29.099219 150.79922 29.800781 151.69922 29.800781 C 152.59922 29.800781 153.30078 29.099219 153.30078 28.199219 C 153.30078 27.299219 152.59922 26.599609 151.69922 26.599609 z M 160.09961 26.599609 C 159.19961 26.599609 158.5 27.299219 158.5 28.199219 C 158.5 29.099219 159.19961 29.800781 160.09961 29.800781 C 160.99961 29.800781 161.69922 29.099219 161.69922 28.199219 C 161.69922 27.299219 160.99961 26.599609 160.09961 26.599609 z M 21.900391 29 C 21.000391 29 20.300781 29.699609 20.300781 30.599609 C 20.300781 31.499609 21.000391 32.199219 21.900391 32.199219 C 22.800391 32.199219 23.5 31.499609 23.5 30.599609 C 23.5 29.699609 22.800391 29 21.900391 29 z M 30.300781 29 C 29.400781 29 28.699219 29.699609 28.699219 30.599609 C 28.699219 31.499609 29.400781 32.199219 30.300781 32.199219 C 31.200781 32.199219 31.900391 31.499609 31.900391 30.599609 C 31.900391 29.699609 31.200781 29 30.300781 29 z M 47 29 C 46.1 29 45.400391 29.699609 45.400391 30.599609 C 45.400391 31.499609 46.1 32.199219 47 32.199219 C 47.9 32.199219 48.599609 31.499609 48.599609 30.599609 C 48.699609 29.699609 47.9 29 47 29 z M 55.400391 29 C 54.500391 29 53.800781 29.699609 53.800781 30.599609 C 53.800781 31.499609 54.500391 32.199219 55.400391 32.199219 C 56.300391 32.199219 57 31.499609 57 30.599609 C 57 29.699609 56.300391 29 55.400391 29 z M 87.099609 29 C 86.199609 29 85.5 29.699609 85.5 30.599609 C 85.5 31.499609 86.199609 32.199219 87.099609 32.199219 C 87.999609 32.199219 88.699219 31.499609 88.699219 30.599609 C 88.699219 29.699609 87.999609 29 87.099609 29 z M 95.400391 29 C 94.500391 29 93.800781 29.699609 93.800781 30.599609 C 93.800781 31.499609 94.500391 32.199219 95.400391 32.199219 C 96.300391 32.199219 97 31.499609 97 30.599609 C 97.1 29.699609 96.300391 29 95.400391 29 z M 103.80078 29 C 102.90078 29 102.19922 29.699609 102.19922 30.599609 C 102.19922 31.499609 102.90078 32.199219 103.80078 32.199219 C 104.70078 32.199219 105.40039 31.499609 105.40039 30.599609 C 105.40039 29.699609 104.70078 29 103.80078 29 z M 112.19922 29 C 111.29922 29 110.59961 29.699609 110.59961 30.599609 C 110.59961 31.499609 111.29922 32.199219 112.19922 32.199219 C 113.09922 32.199219 113.80078 31.499609 113.80078 30.599609 C 113.80078 29.699609 113.09922 29 112.19922 29 z M 139.19922 29 C 138.29922 29 137.59961 29.699609 137.59961 30.599609 C 137.59961 31.499609 138.29922 32.199219 139.19922 32.199219 C 140.09922 32.199219 140.80078 31.499609 140.80078 30.599609 C 140.80078 29.699609 140.09922 29 139.19922 29 z M 147.5 29 C 146.6 29 145.90039 29.699609 145.90039 30.599609 C 145.90039 31.499609 146.6 32.199219 147.5 32.199219 C 148.4 32.199219 149.09961 31.499609 149.09961 30.599609 C 149.19961 29.699609 148.4 29 147.5 29 z M 155.90039 29 C 155.00039 29 154.30078 29.699609 154.30078 30.599609 C 154.30078 31.499609 155.00039 32.199219 155.90039 32.199219 C 156.80039 32.199219 157.5 31.499609 157.5 30.599609 C 157.5 29.699609 156.80039 29 155.90039 29 z M 13.5 29.599609 C 12.9 29.599609 12.5 30.099609 12.5 30.599609 C 12.5 31.199609 13 31.599609 13.5 31.599609 C 14.1 31.599609 14.5 31.099609 14.5 30.599609 C 14.5 29.999609 14 29.599609 13.5 29.599609 z M 63.800781 29.599609 C 63.200781 29.599609 62.800781 30.099609 62.800781 30.599609 C 62.800781 31.199609 63.200781 31.599609 63.800781 31.599609 C 64.400781 31.599609 64.800781 31.099609 64.800781 30.599609 C 64.800781 29.999609 64.300781 29.599609 63.800781 29.599609 z M 164.30078 29.599609 C 163.70078 29.599609 163.30078 30.099609 163.30078 30.599609 C 163.30078 31.199609 163.70078 31.599609 164.30078 31.599609 C 164.90078 31.599609 165.30078 31.099609 165.30078 30.599609 C 165.30078 29.999609 164.80078 29.599609 164.30078 29.599609 z M 17.699219 31.400391 C 16.799219 31.400391 16.099609 32.1 16.099609 33 C 16.099609 33.9 16.799219 34.599609 17.699219 34.599609 C 18.599219 34.599609 19.300781 33.9 19.300781 33 C 19.300781 32.1 18.599219 31.400391 17.699219 31.400391 z M 26.099609 31.400391 C 25.199609 31.400391 24.5 32.1 24.5 33 C 24.5 33.9 25.199609 34.599609 26.099609 34.599609 C 26.999609 34.599609 27.699219 33.9 27.699219 33 C 27.699219 32.1 26.999609 31.400391 26.099609 31.400391 z M 51.199219 31.400391 C 50.299219 31.400391 49.599609 32.1 49.599609 33 C 49.599609 33.9 50.299219 34.599609 51.199219 34.599609 C 52.099219 34.599609 52.800781 33.9 52.800781 33 C 52.800781 32.1 52.099219 31.400391 51.199219 31.400391 z M 59.599609 31.400391 C 58.699609 31.400391 58 32.1 58 33 C 58 33.9 58.699609 34.599609 59.599609 34.599609 C 60.499609 34.599609 61.199219 33.9 61.199219 33 C 61.199219 32.1 60.499609 31.400391 59.599609 31.400391 z M 91.199219 31.400391 C 90.299219 31.400391 89.599609 32.1 89.599609 33 C 89.599609 33.9 90.299219 34.599609 91.199219 34.599609 C 92.099219 34.599609 92.800781 33.9 92.800781 33 C 92.800781 32.1 92.099219 31.400391 91.199219 31.400391 z M 135 31.400391 C 134.1 31.400391 133.40039 32.1 133.40039 33 C 133.40039 33.9 134.1 34.599609 135 34.599609 C 135.9 34.599609 136.59961 33.9 136.59961 33 C 136.59961 32.1 135.9 31.400391 135 31.400391 z M 143.30078 31.400391 C 142.40078 31.400391 141.69922 32.1 141.69922 33 C 141.69922 33.9 142.40078 34.599609 143.30078 34.599609 C 144.20078 34.599609 144.90039 33.9 144.90039 33 C 144.90039 32.1 144.20078 31.400391 143.30078 31.400391 z M 99.599609 31.5 C 98.699609 31.5 98 32.199609 98 33.099609 C 98 33.999609 98.699609 34.699219 99.599609 34.699219 C 100.49961 34.699219 101.19922 33.999609 101.19922 33.099609 C 101.19922 32.199609 100.49961 31.5 99.599609 31.5 z M 108 31.5 C 107.1 31.5 106.40039 32.199609 106.40039 33.099609 C 106.40039 33.999609 107.1 34.699219 108 34.699219 C 108.9 34.699219 109.59961 33.999609 109.59961 33.099609 C 109.59961 32.199609 108.9 31.5 108 31.5 z M 151.69922 31.5 C 150.79922 31.5 150.09961 32.199609 150.09961 33.099609 C 150.09961 33.999609 150.79922 34.699219 151.69922 34.699219 C 152.59922 34.699219 153.30078 33.999609 153.30078 33.099609 C 153.30078 32.199609 152.59922 31.5 151.69922 31.5 z M 34.5 32 C 33.9 32 33.5 32.5 33.5 33 C 33.4 33.6 33.9 34 34.5 34 C 35.1 34 35.5 33.5 35.5 33 C 35.5 32.4 35 32 34.5 32 z M 42.800781 32 C 42.200781 32 41.800781 32.5 41.800781 33 C 41.800781 33.6 42.300781 34 42.800781 34 C 43.400781 34 43.800781 33.5 43.800781 33 C 43.800781 32.4 43.300781 32 42.800781 32 z M 160.09961 32 C 159.49961 32 159.09961 32.5 159.09961 33 C 159.09961 33.6 159.49961 34 160.09961 34 C 160.69961 34 161.09961 33.5 161.09961 33 C 161.09961 32.4 160.59961 32 160.09961 32 z M 21.900391 33.800781 C 21.000391 33.800781 20.300781 34.500391 20.300781 35.400391 C 20.300781 36.300391 21.000391 37 21.900391 37 C 22.800391 37 23.5 36.300391 23.5 35.400391 C 23.5 34.500391 22.800391 33.800781 21.900391 33.800781 z M 30.300781 33.800781 C 29.400781 33.800781 28.699219 34.500391 28.699219 35.400391 C 28.699219 36.300391 29.400781 37 30.300781 37 C 31.200781 37 31.900391 36.300391 31.900391 35.400391 C 31.900391 34.500391 31.200781 33.800781 30.300781 33.800781 z M 47 33.800781 C 46.1 33.800781 45.400391 34.500391 45.400391 35.400391 C 45.400391 36.300391 46.1 37 47 37 C 47.9 37 48.599609 36.300391 48.599609 35.400391 C 48.699609 34.500391 47.9 33.800781 47 33.800781 z M 55.400391 33.800781 C 54.500391 33.800781 53.800781 34.500391 53.800781 35.400391 C 53.800781 36.300391 54.500391 37 55.400391 37 C 56.300391 37 57 36.300391 57 35.400391 C 57 34.500391 56.300391 33.800781 55.400391 33.800781 z M 87.099609 33.800781 C 86.199609 33.800781 85.5 34.500391 85.5 35.400391 C 85.5 36.300391 86.199609 37 87.099609 37 C 87.999609 37 88.699219 36.300391 88.699219 35.400391 C 88.699219 34.500391 87.999609 33.800781 87.099609 33.800781 z M 95.400391 33.800781 C 94.500391 33.800781 93.800781 34.500391 93.800781 35.400391 C 93.800781 36.300391 94.500391 37 95.400391 37 C 96.300391 37 97 36.300391 97 35.400391 C 97.1 34.500391 96.300391 33.800781 95.400391 33.800781 z M 139.19922 33.800781 C 138.29922 33.800781 137.59961 34.500391 137.59961 35.400391 C 137.59961 36.300391 138.29922 37 139.19922 37 C 140.09922 37 140.80078 36.300391 140.80078 35.400391 C 140.80078 34.500391 140.09922 33.800781 139.19922 33.800781 z M 155.90039 34.400391 C 155.30039 34.400391 154.90039 34.900391 154.90039 35.400391 C 154.90039 36.000391 155.40039 36.400391 155.90039 36.400391 C 156.50039 36.400391 156.90039 35.900391 156.90039 35.400391 C 156.90039 34.900391 156.50039 34.400391 155.90039 34.400391 z M 103.80078 34.5 C 103.20078 34.5 102.80078 35 102.80078 35.5 C 102.80078 36 103.30078 36.5 103.80078 36.5 C 104.40078 36.5 104.80078 36 104.80078 35.5 C 104.80078 35 104.30078 34.5 103.80078 34.5 z M 147.5 34.5 C 146.9 34.5 146.5 35 146.5 35.5 C 146.5 36 147 36.5 147.5 36.5 C 148.1 36.5 148.5 36 148.5 35.5 C 148.5 35 148 34.5 147.5 34.5 z M 17.699219 36.199219 C 16.799219 36.199219 16.099609 36.900781 16.099609 37.800781 C 16.099609 38.700781 16.799219 39.400391 17.699219 39.400391 C 18.599219 39.400391 19.300781 38.700781 19.300781 37.800781 C 19.300781 37.000781 18.599219 36.199219 17.699219 36.199219 z M 26.099609 36.199219 C 25.199609 36.199219 24.5 36.900781 24.5 37.800781 C 24.5 38.700781 25.199609 39.400391 26.099609 39.400391 C 26.999609 39.400391 27.699219 38.700781 27.699219 37.800781 C 27.699219 37.000781 26.999609 36.199219 26.099609 36.199219 z M 51.199219 36.199219 C 50.299219 36.199219 49.599609 36.900781 49.599609 37.800781 C 49.599609 38.700781 50.299219 39.400391 51.199219 39.400391 C 52.099219 39.400391 52.800781 38.700781 52.800781 37.800781 C 52.800781 37.000781 52.099219 36.199219 51.199219 36.199219 z M 59.599609 36.199219 C 58.699609 36.199219 58 36.900781 58 37.800781 C 58 38.700781 58.699609 39.400391 59.599609 39.400391 C 60.499609 39.400391 61.199219 38.700781 61.199219 37.800781 C 61.199219 37.000781 60.499609 36.199219 59.599609 36.199219 z M 91.199219 36.199219 C 90.299219 36.199219 89.599609 36.900781 89.599609 37.800781 C 89.599609 38.700781 90.299219 39.400391 91.199219 39.400391 C 92.099219 39.400391 92.800781 38.700781 92.800781 37.800781 C 92.900781 37.000781 92.099219 36.199219 91.199219 36.199219 z M 135 36.199219 C 134.1 36.199219 133.40039 36.900781 133.40039 37.800781 C 133.40039 38.700781 134.1 39.400391 135 39.400391 C 135.9 39.400391 136.59961 38.700781 136.59961 37.800781 C 136.59961 37.000781 135.9 36.199219 135 36.199219 z M 143.30078 36.199219 C 142.40078 36.199219 141.69922 36.900781 141.69922 37.800781 C 141.69922 38.700781 142.40078 39.400391 143.30078 39.400391 C 144.20078 39.400391 144.90039 38.700781 144.90039 37.800781 C 145.00039 37.000781 144.20078 36.199219 143.30078 36.199219 z M 21.900391 38.699219 C 21.000391 38.699219 20.300781 39.400781 20.300781 40.300781 C 20.300781 41.200781 21.000391 41.900391 21.900391 41.900391 C 22.800391 41.900391 23.5 41.200781 23.5 40.300781 C 23.5 39.400781 22.800391 38.699219 21.900391 38.699219 z M 30.300781 38.699219 C 29.400781 38.699219 28.699219 39.400781 28.699219 40.300781 C 28.599219 41.200781 29.400781 41.900391 30.300781 41.900391 C 31.200781 41.900391 31.900391 41.200781 31.900391 40.300781 C 31.900391 39.400781 31.200781 38.699219 30.300781 38.699219 z M 47 38.699219 C 46.1 38.699219 45.400391 39.400781 45.400391 40.300781 C 45.400391 41.200781 46.1 41.900391 47 41.900391 C 47.9 41.900391 48.599609 41.200781 48.599609 40.300781 C 48.599609 39.400781 47.9 38.699219 47 38.699219 z M 55.400391 38.699219 C 54.500391 38.699219 53.800781 39.400781 53.800781 40.300781 C 53.800781 41.200781 54.500391 41.900391 55.400391 41.900391 C 56.300391 41.900391 57 41.200781 57 40.300781 C 57 39.400781 56.300391 38.699219 55.400391 38.699219 z M 87.099609 38.699219 C 86.199609 38.699219 85.5 39.400781 85.5 40.300781 C 85.5 41.200781 86.199609 41.900391 87.099609 41.900391 C 87.999609 41.900391 88.699219 41.200781 88.699219 40.300781 C 88.699219 39.400781 87.999609 38.699219 87.099609 38.699219 z M 95.400391 38.699219 C 94.500391 38.699219 93.800781 39.400781 93.800781 40.300781 C 93.800781 41.200781 94.500391 41.900391 95.400391 41.900391 C 96.300391 41.900391 97 41.200781 97 40.300781 C 97.1 39.400781 96.300391 38.699219 95.400391 38.699219 z M 139.19922 38.699219 C 138.29922 38.699219 137.59961 39.400781 137.59961 40.300781 C 137.59961 41.200781 138.29922 41.900391 139.19922 41.900391 C 140.09922 41.900391 140.80078 41.200781 140.80078 40.300781 C 140.80078 39.400781 140.09922 38.699219 139.19922 38.699219 z M 26.099609 41.099609 C 25.199609 41.099609 24.5 41.799219 24.5 42.699219 C 24.5 43.599219 25.199609 44.300781 26.099609 44.300781 C 26.999609 44.300781 27.699219 43.599219 27.699219 42.699219 C 27.699219 41.799219 26.999609 41.099609 26.099609 41.099609 z M 51.199219 41.099609 C 50.299219 41.099609 49.599609 41.799219 49.599609 42.699219 C 49.599609 43.599219 50.299219 44.300781 51.199219 44.300781 C 52.099219 44.300781 52.800781 43.599219 52.800781 42.699219 C 52.800781 41.799219 52.099219 41.099609 51.199219 41.099609 z M 91.199219 41.099609 C 90.299219 41.099609 89.599609 41.799219 89.599609 42.699219 C 89.599609 43.599219 90.299219 44.300781 91.199219 44.300781 C 92.099219 44.300781 92.800781 43.599219 92.800781 42.699219 C 92.900781 41.799219 92.099219 41.099609 91.199219 41.099609 z M 135 41.099609 C 134.1 41.099609 133.40039 41.799219 133.40039 42.699219 C 133.40039 43.599219 134.1 44.300781 135 44.300781 C 135.9 44.300781 136.59961 43.599219 136.59961 42.699219 C 136.59961 41.799219 135.9 41.099609 135 41.099609 z M 143.30078 41.099609 C 142.40078 41.099609 141.69922 41.799219 141.69922 42.699219 C 141.69922 43.599219 142.40078 44.300781 143.30078 44.300781 C 144.20078 44.300781 144.90039 43.599219 144.90039 42.699219 C 145.00039 41.799219 144.20078 41.099609 143.30078 41.099609 z M 17.699219 41.699219 C 17.099219 41.699219 16.699219 42.199219 16.699219 42.699219 C 16.699219 43.299219 17.099219 43.699219 17.699219 43.699219 C 18.299219 43.699219 18.699219 43.199219 18.699219 42.699219 C 18.699219 42.099219 18.199219 41.699219 17.699219 41.699219 z M 59.599609 41.699219 C 59.099609 41.699219 58.599609 42.199219 58.599609 42.699219 C 58.599609 43.299219 58.999609 43.699219 59.599609 43.699219 C 60.199609 43.699219 60.599609 43.199219 60.599609 42.699219 C 60.599609 42.099219 60.099609 41.699219 59.599609 41.699219 z M 21.900391 43.5 C 21.000391 43.5 20.300781 44.199609 20.300781 45.099609 C 20.300781 45.999609 21.000391 46.699219 21.900391 46.699219 C 22.800391 46.699219 23.5 45.999609 23.5 45.099609 C 23.5 44.199609 22.800391 43.5 21.900391 43.5 z M 55.400391 43.5 C 54.500391 43.5 53.800781 44.199609 53.800781 45.099609 C 53.800781 45.999609 54.500391 46.699219 55.400391 46.699219 C 56.300391 46.699219 57 45.999609 57 45.099609 C 57 44.199609 56.300391 43.5 55.400391 43.5 z M 87.099609 43.5 C 86.199609 43.5 85.5 44.199609 85.5 45.099609 C 85.5 45.999609 86.199609 46.699219 87.099609 46.699219 C 87.999609 46.699219 88.699219 45.999609 88.699219 45.099609 C 88.699219 44.199609 87.999609 43.5 87.099609 43.5 z M 95.400391 43.5 C 94.500391 43.5 93.800781 44.199609 93.800781 45.099609 C 93.800781 45.999609 94.500391 46.699219 95.400391 46.699219 C 96.300391 46.699219 97 45.999609 97 45.099609 C 97.1 44.199609 96.300391 43.5 95.400391 43.5 z M 139.19922 43.5 C 138.29922 43.5 137.59961 44.199609 137.59961 45.099609 C 137.59961 45.999609 138.29922 46.699219 139.19922 46.699219 C 140.09922 46.699219 140.80078 45.999609 140.80078 45.099609 C 140.80078 44.199609 140.09922 43.5 139.19922 43.5 z M 26.099609 46 C 25.199609 46 24.5 46.699609 24.5 47.599609 C 24.4 48.399609 25.199609 49.199219 26.099609 49.199219 C 26.999609 49.199219 27.699219 48.499609 27.699219 47.599609 C 27.699219 46.699609 26.999609 46 26.099609 46 z M 51.199219 46 C 50.299219 46 49.599609 46.699609 49.599609 47.599609 C 49.599609 48.399609 50.299219 49.199219 51.199219 49.199219 C 52.099219 49.199219 52.800781 48.499609 52.800781 47.599609 C 52.800781 46.699609 52.099219 46 51.199219 46 z M 91.199219 46 C 90.299219 46 89.599609 46.699609 89.599609 47.599609 C 89.599609 48.399609 90.299219 49.199219 91.199219 49.199219 C 92.099219 49.199219 92.800781 48.499609 92.800781 47.599609 C 92.800781 46.699609 92.099219 46 91.199219 46 z M 135 46 C 134.1 46 133.40039 46.699609 133.40039 47.599609 C 133.30039 48.399609 134.1 49.199219 135 49.199219 C 135.9 49.199219 136.59961 48.499609 136.59961 47.599609 C 136.59961 46.699609 135.9 46 135 46 z M 143.30078 46 C 142.40078 46 141.69922 46.699609 141.69922 47.599609 C 141.69922 48.399609 142.40078 49.199219 143.30078 49.199219 C 144.20078 49.199219 144.90039 48.499609 144.90039 47.599609 C 144.90039 46.699609 144.20078 46 143.30078 46 z M 21.900391 49 C 21.300391 49 20.900391 49.5 20.900391 50 C 20.900391 50.5 21.300391 51 21.900391 51 C 22.500391 51 22.900391 50.5 22.900391 50 C 22.900391 49.4 22.400391 49 21.900391 49 z M 55.400391 49 C 54.800391 49 54.400391 49.5 54.400391 50 C 54.400391 50.5 54.800391 51 55.400391 51 C 56.000391 51 56.400391 50.5 56.400391 50 C 56.400391 49.4 55.900391 49 55.400391 49 z M 87.099609 49 C 86.499609 49 86.099609 49.5 86.099609 50 C 85.999609 50.5 86.499609 51 87.099609 51 C 87.699609 51 88.099609 50.5 88.099609 50 C 88.099609 49.4 87.599609 49 87.099609 49 z M 95.400391 49 C 94.800391 49 94.400391 49.5 94.400391 50 C 94.400391 50.5 94.900391 51 95.400391 51 C 96.000391 51 96.400391 50.5 96.400391 50 C 96.400391 49.4 95.900391 49 95.400391 49 z M 139.19922 49 C 138.59922 49 138.19922 49.5 138.19922 50 C 138.09922 50.5 138.59922 51 139.19922 51 C 139.79922 51 140.19922 50.5 140.19922 50 C 140.19922 49.4 139.69922 49 139.19922 49 z " />
</svg>
